HIERARCHY
ROOT Hips
{
    OFFSET   0.000000   0.000000   0.000000
    CHANNELS 6 Xposition Yposition Zposition Zrotation Xrotation Yrotation
    JOINT Chest
    {
        OFFSET   0.000000   8.007240   0.000000
        CHANNELS 3 Zrotation Xrotation Yrotation
        JOINT Chest2
        {
            OFFSET   0.000000  22.077100   0.000000
            CHANNELS 3 Zrotation Xrotation Yrotation
            JOINT Neck
            {
                OFFSET   0.000000  23.254800   0.000000
                CHANNELS 3 Zrotation Xrotation Yrotation
                JOINT Head
                {
                    OFFSET   0.000000  14.370000   1.956600
                    CHANNELS 3 Zrotation Xrotation Yrotation
                    End Site
                    {
                        OFFSET   0.000000  19.566000   0.000000
                    }
                }
            }
            JOINT LeftCollar
            {
                OFFSET   3.911900  19.017000  -0.467064
                CHANNELS 3 Zrotation Xrotation Yrotation
                JOINT LeftShoulder
                {
                    OFFSET  10.383700   0.000000   0.000000
                    CHANNELS 3 Zrotation Xrotation Yrotation
                    JOINT LeftElbow
                    {
                        OFFSET  26.662100   0.001476   0.000517
                        CHANNELS 3 Zrotation Xrotation Yrotation
                        JOINT LeftWrist
                        {
                            OFFSET  28.869000  -0.000025  -0.000106
                            CHANNELS 3 Zrotation Xrotation Yrotation
                            JOINT LeftFinger0
                            {
                                OFFSET   2.044660  -2.323460   3.252850
                                CHANNELS 3 Zrotation Xrotation Yrotation
                                JOINT LeftFinger01
                                {
                                    OFFSET   3.088130   0.000000   0.000000
                                    CHANNELS 3 Zrotation Xrotation Yrotation
                                    JOINT LeftFinger02
                                    {
                                        OFFSET   2.639460   0.000000   0.000000
                                        CHANNELS 3 Zrotation Xrotation Yrotation
                                        End Site
                                        {
                                            OFFSET   2.582190   0.000000   0.000000
                                        }
                                    }
                                }
                            }
                            JOINT LeftFinger1
                            {
                                OFFSET   8.364480   0.000000   3.252850
                                CHANNELS 3 Zrotation Xrotation Yrotation
                                JOINT LeftFinger11
                                {
                                    OFFSET   4.646930   0.000000   0.000000
                                    CHANNELS 3 Zrotation Xrotation Yrotation
                                    JOINT LeftFinger12
                                    {
                                        OFFSET   2.323460   0.000000   0.000000
                                        CHANNELS 3 Zrotation Xrotation Yrotation
                                        End Site
                                        {
                                            OFFSET   2.273050   0.000000   0.000000
                                        }
                                    }
                                }
                            }
                            JOINT LeftFinger2
                            {
                                OFFSET   8.364490   0.000015   1.078090
                                CHANNELS 3 Zrotation Xrotation Yrotation
                                JOINT LeftFinger21
                                {
                                    OFFSET   5.111620   0.000000   0.000000
                                    CHANNELS 3 Zrotation Xrotation Yrotation
                                    JOINT LeftFinger22
                                    {
                                        OFFSET   2.788160   0.000016   0.000000
                                        CHANNELS 3 Zrotation Xrotation Yrotation
                                        End Site
                                        {
                                            OFFSET   2.727660   0.000000   0.000000
                                        }
                                    }
                                }
                            }
                            JOINT LeftFinger3
                            {
                                OFFSET   7.899780   0.000017  -1.078090
                                CHANNELS 3 Zrotation Xrotation Yrotation
                                JOINT LeftFinger31
                                {
                                    OFFSET   4.646930   0.000000   0.000000
                                    CHANNELS 3 Zrotation Xrotation Yrotation
                                    JOINT LeftFinger32
                                    {
                                        OFFSET   2.323470   0.000000   0.000000
                                        CHANNELS 3 Zrotation Xrotation Yrotation
                                        End Site
                                        {
                                            OFFSET   2.273050   0.000000   0.000000
                                        }
                                    }
                                }
                            }
                            JOINT LeftFinger4
                            {
                                OFFSET   7.435090   0.000000  -3.252850
                                CHANNELS 3 Zrotation Xrotation Yrotation
                                JOINT LeftFinger41
                                {
                                    OFFSET   3.717550   0.000000   0.000000
                                    CHANNELS 3 Zrotation Xrotation Yrotation
                                    JOINT LeftFinger42
                                    {
                                        OFFSET   1.858770   0.000000   0.000000
                                        CHANNELS 3 Zrotation Xrotation Yrotation
                                        End Site
                                        {
                                            OFFSET   1.818440   0.000000   0.000000
                                        }
                                    }
                                }
                            }
                        }
                    }
                }
            }
            JOINT RightCollar
            {
                OFFSET  -3.911900  19.017000  -0.467063
                CHANNELS 3 Zrotation Xrotation Yrotation
                JOINT RightShoulder
                {
                    OFFSET -10.383700   0.000019   0.000000
                    CHANNELS 3 Zrotation Xrotation Yrotation
                    JOINT RightElbow
                    {
                        OFFSET -26.662100   0.001175   0.000102
                        CHANNELS 3 Zrotation Xrotation Yrotation
                        JOINT RightWrist
                        {
                            OFFSET -28.869000   0.000016  -0.000079
                            CHANNELS 3 Zrotation Xrotation Yrotation
                            JOINT RightFinger0
                            {
                                OFFSET  -2.044660  -2.323490   3.252850
                                CHANNELS 3 Zrotation Xrotation Yrotation
                                JOINT RightFinger01
                                {
                                    OFFSET  -3.088140   0.000000   0.000000
                                    CHANNELS 3 Zrotation Xrotation Yrotation
                                    JOINT RightFinger02
                                    {
                                        OFFSET  -2.639460   0.000000   0.000000
                                        CHANNELS 3 Zrotation Xrotation Yrotation
                                        End Site
                                        {
                                            OFFSET  -2.582190   0.000000   0.000000
                                        }
                                    }
                                }
                            }
                            JOINT RightFinger1
                            {
                                OFFSET  -8.364480   0.000000   3.252850
                                CHANNELS 3 Zrotation Xrotation Yrotation
                                JOINT RightFinger11
                                {
                                    OFFSET  -4.646930   0.000000   0.000000
                                    CHANNELS 3 Zrotation Xrotation Yrotation
                                    JOINT RightFinger12
                                    {
                                        OFFSET  -2.323470   0.000000   0.000000
                                        CHANNELS 3 Zrotation Xrotation Yrotation
                                        End Site
                                        {
                                            OFFSET  -2.273050   0.000000   0.000000
                                        }
                                    }
                                }
                            }
                            JOINT RightFinger2
                            {
                                OFFSET  -8.364480   0.000000   1.078090
                                CHANNELS 3 Zrotation Xrotation Yrotation
                                JOINT RightFinger21
                                {
                                    OFFSET  -5.111620   0.000000   0.000000
                                    CHANNELS 3 Zrotation Xrotation Yrotation
                                    JOINT RightFinger22
                                    {
                                        OFFSET  -2.788160   0.000000   0.000000
                                        CHANNELS 3 Zrotation Xrotation Yrotation
                                        End Site
                                        {
                                            OFFSET  -2.727660   0.000000   0.000000
                                        }
                                    }
                                }
                            }
                            JOINT RightFinger3
                            {
                                OFFSET  -7.899780   0.000000  -1.078090
                                CHANNELS 3 Zrotation Xrotation Yrotation
                                JOINT RightFinger31
                                {
                                    OFFSET  -4.646930   0.000000   0.000000
                                    CHANNELS 3 Zrotation Xrotation Yrotation
                                    JOINT RightFinger32
                                    {
                                        OFFSET  -2.323470   0.000000   0.000000
                                        CHANNELS 3 Zrotation Xrotation Yrotation
                                        End Site
                                        {
                                            OFFSET  -2.273050   0.000000   0.000000
                                        }
                                    }
                                }
                            }
                            JOINT RightFinger4
                            {
                                OFFSET  -7.435090   0.000000  -3.252850
                                CHANNELS 3 Zrotation Xrotation Yrotation
                                JOINT RightFinger41
                                {
                                    OFFSET  -3.717550   0.000000   0.000000
                                    CHANNELS 3 Zrotation Xrotation Yrotation
                                    JOINT RightFinger42
                                    {
                                        OFFSET  -1.858770   0.000000   0.000000
                                        CHANNELS 3 Zrotation Xrotation Yrotation
                                        End Site
                                        {
                                            OFFSET  -1.818440   0.000000   0.000000
                                        }
                                    }
                                }
                            }
                        }
                    }
                }
            }
        }
    }
    JOINT LeftHip
    {
        OFFSET   9.783040   0.000000   0.000000
        CHANNELS 3 Zrotation Xrotation Yrotation
        JOINT LeftKnee
        {
            OFFSET   0.000032 -41.789100  -0.002222
            CHANNELS 3 Zrotation Xrotation Yrotation
            JOINT LeftAnkle
            {
                OFFSET   0.000087 -41.133200  -0.000135
                CHANNELS 3 Zrotation Xrotation Yrotation
                JOINT LeftToe
                {
                    OFFSET   0.000000  -6.358960  14.674500
                    CHANNELS 3 Zrotation Xrotation Yrotation
                    End Site
                    {
                        OFFSET   0.000000   0.000000   3.913200
                    }
                }
            }
        }
    }
    JOINT RightHip
    {
        OFFSET  -9.783040   0.000000   0.000000
        CHANNELS 3 Zrotation Xrotation Yrotation
        JOINT RightKnee
        {
            OFFSET   0.000047 -41.789100  -0.000896
            CHANNELS 3 Zrotation Xrotation Yrotation
            JOINT RightAnkle
            {
                OFFSET  -0.000117 -41.133300  -0.000248
                CHANNELS 3 Zrotation Xrotation Yrotation
                JOINT RightToe
                {
                    OFFSET   0.000000  -6.358970  14.674500
                    CHANNELS 3 Zrotation Xrotation Yrotation
                    End Site
                    {
                        OFFSET   0.000000   0.000000   3.913200
                    }
                }
            }
        }
    }
}
MOTION
Frames: 4
Frame Time:   0.016667
 -0.568594  89.463400   0.048943  -0.810546  -4.210540   3.932250   0.876606   3.517640  -0.927208   1.815380   7.020210  -1.913740  -1.624070   0.153541   0.008022  -2.672240   0.310329   3.098480  -6.432740   1.992200   9.667090 -78.472300   7.995780  -0.021976  -0.081412   5.410280 -17.590900  10.227800  -2.883740  -0.464178  39.284300  33.988700 -50.951700 -34.233300   0.002997   0.009390 -12.116700  -0.001788  -0.003331 -33.528000  -1.743510   2.629110 -27.464700  -0.005955   0.006073 -19.231900  -0.009629   0.002163 -30.911300  -3.723590   6.180290 -46.667800   0.001039  -0.008375 -31.080800   0.003541  -0.000729 -28.208500  -4.159600   7.717010 -35.905600  -0.000147   0.002835 -23.913100  -0.003223   0.007179 -31.504200  -5.148020   8.328970 -47.818900  -0.004761   0.005008 -31.847400  -0.005540   0.005756   5.409350   3.908810   7.549840  73.097000  -1.999350  -2.845390   4.380110  -4.190190  17.509800 -18.049200   2.868410   3.098140 -39.933800  35.928500  72.456800  30.142900  -0.004086  -0.005707  10.066200   0.001902  -0.005591  30.842600   0.268764   0.450166  25.235600   0.000095  -0.007823  17.665000  -0.005729  -0.007970  28.511200  -1.116790  -2.059180  36.464100  -0.005340  -0.000176  24.285100  -0.004941  -0.000115  28.676800  -1.201410  -2.195550  38.998100  -0.002423   0.003019  25.972700  -0.004322  -0.004915  35.342400  -1.448290  -2.041190  53.052300  -0.004462  -0.013229  35.332800  -0.005541  -0.001998   3.600170   6.454510  -1.605470   0.309954   0.000954   8.217960  -3.511390  -2.613260   0.123914  -0.000000   0.000000  -0.000000  -1.160550   7.835220  -7.419710   1.255640   0.294009 -14.991300   0.527650  -2.758040   1.164070   0.000000   0.000000  -0.000000
 -0.579531  89.463300   0.034840  -0.808886  -4.234620   3.932370   0.876938   3.520680  -0.931197   1.816470   7.026190  -1.921820  -1.623810   0.169147   0.007956  -2.672230   0.341973   3.116350  -6.436030   2.010340   9.690860 -78.484500   8.030170  -0.026388  -0.081503   5.389890 -17.603100  10.225600  -2.899800  -0.463573  39.279900  33.983200 -50.960900 -34.233100   0.002992   0.009405 -12.116600  -0.001786  -0.003324 -33.534700  -1.740010   2.623040 -27.470100  -0.005961   0.006071 -19.231700  -0.009631   0.002154 -30.919100  -3.723610   6.180540 -46.679800   0.001034  -0.008370 -31.088800   0.003537  -0.000738 -28.209000  -4.159670   7.710590 -35.917800  -0.000134   0.002814 -23.921200  -0.003212   0.007174 -31.515400  -5.143940   8.317880 -47.834600  -0.004751   0.004997 -31.857900  -0.005541   0.005760   5.403850   3.934430   7.580020  73.094400  -2.008940  -2.818470   4.362520  -4.172480  17.509500 -18.054500   2.851460   3.107190 -39.932400  35.919900  72.459100  30.137600  -0.004081  -0.005670  10.066200   0.001903  -0.005569  30.850800   0.272395   0.456060  25.242300   0.000097  -0.007805  17.669700  -0.005732  -0.007959  28.511600  -1.115290  -2.054580  36.482900  -0.005331  -0.000120  24.297600  -0.004916  -0.000076  28.677400  -1.188670  -2.172170  39.009500  -0.002413   0.003032  25.980400  -0.004307  -0.004899  35.345000  -1.433080  -2.019330  53.055700  -0.004452  -0.013254  35.335000  -0.005534  -0.001989   3.600550   6.469260  -1.605490   0.313120   0.001173   8.218390  -3.512670  -2.600080   0.122923  -0.000000   0.000000  -0.000000  -1.155650   7.865840  -7.420720   1.258450   0.268380 -14.991100   0.522557  -2.740900   1.165010   0.000000   0.000000   0.000000
 -0.597854  89.463200   0.010764  -0.806115  -4.274820   3.932580   0.877700   3.524990  -0.938156   1.818390   7.034670  -1.935910  -1.623550   0.201038   0.007889  -2.673840   0.406510   3.148330  -6.439030   2.044690   9.729230 -78.510700   8.086570  -0.030801  -0.074822   5.368800 -17.639000  10.215700  -2.937760  -0.459308  39.276200  33.973800 -50.973400 -34.233000   0.002987   0.009434 -12.116600  -0.001783  -0.003304 -33.543800  -1.736510   2.616970 -27.477400  -0.005976   0.006065 -19.231400  -0.009635   0.002133 -30.932200  -3.723630   6.180790 -46.699700   0.001023  -0.008358 -31.102000   0.003526  -0.000762 -28.209400  -4.159730   7.704160 -35.936000  -0.000102   0.002764 -23.933400  -0.003182   0.007163 -31.532700  -5.139860   8.306790 -47.859300  -0.004726   0.004971 -31.874300  -0.005545   0.005771   5.393880   3.981600   7.632350  73.091800  -2.030690  -2.777510   4.323400  -4.144950  17.509500 -18.059200   2.823370   3.116210 -39.908300  35.896400  72.450500  30.132400  -0.004070  -0.005578  10.066200   0.001903  -0.005530  30.858900   0.277920   0.465061  25.249000   0.000099  -0.007760  17.674400  -0.005738  -0.007932  28.512200  -1.110600  -2.043610  36.501600  -0.005309   0.000000  24.310200  -0.004857   0.000000  28.678000  -1.175930  -2.148790  39.037600  -0.002386   0.003062  25.999100  -0.004269  -0.004858  35.354400  -1.417860  -1.997470  53.068700  -0.004430  -0.013314  35.343700  -0.005522  -0.001967   3.600730   6.484010  -1.605460   0.323204   0.002704   8.218820  -3.516350  -2.586900   0.119655  -0.000000   0.000000   0.000000  -1.149250   7.896410  -7.424490   1.261260   0.242751 -14.989700   0.515345  -2.723760   1.168320  -0.000000   0.000000   0.000000
 -0.612707  89.463500  -0.009745  -0.800533  -4.305660   3.934540   0.879035   3.525990  -0.944392   1.821360   7.036580  -1.948520  -1.624950   0.238784   0.007910  -2.677950   0.482590   3.180380  -6.436310   2.083400   9.757180 -78.546200   8.127710  -0.019893  -0.056356   5.367550 -17.694400  10.196700  -2.991360  -0.442524  39.272200  33.961800 -50.969800 -34.233000   0.002992   0.009464 -12.116600  -0.001783  -0.003265 -33.545100  -1.742580   2.626200 -27.478800  -0.006001   0.006055 -19.232200  -0.009638   0.002101 -30.941500  -3.723620   6.180730 -46.713700   0.001006  -0.008340 -31.111400   0.003509  -0.000799 -28.208500  -4.163010   7.710100 -35.945500  -0.000057   0.002692 -23.939700  -0.003134   0.007147 -31.543100  -5.145450   8.313300 -47.875900  -0.004688   0.004930 -31.885400  -0.005550   0.005789   5.383800   4.029890   7.680460  73.103500  -2.061640  -2.748270   4.276180  -4.130940  17.538900 -18.026900   2.795730   3.115670 -39.811100  35.802500  72.307600  30.205300  -0.004056  -0.005431  10.102700   0.001899  -0.005490  30.858200   0.279619   0.467860  25.248400   0.000099  -0.007689  17.674000  -0.005744  -0.007892  28.511700  -1.106590  -2.036000  36.499000  -0.005276   0.000161  24.308400  -0.004767   0.000088  28.677900  -1.225370  -2.238990  39.092800  -0.002346   0.003106  26.035800  -0.004210  -0.004794  35.376000  -1.478000  -2.080950  53.104000  -0.004399  -0.013401  35.367200  -0.005508  -0.001934   3.596240   6.472030  -1.605320   0.336782   0.060631   8.218360  -3.524660  -2.601080   0.112019  -0.000000   0.000000   0.000000  -1.144880   7.895020  -7.434970   1.260870   0.288404 -14.982500   0.513699  -2.736960   1.174550  -0.000000   0.000000   0.000000
